<?xml version="1.0" standalone="no"?>
<!DOCTYPE svg PUBLIC "-//W3C//DTD SVG 20010904//EN"
 "http://www.w3.org/TR/2001/REC-SVG-20010904/DTD/svg10.dtd">
<svg version="1.0" xmlns="http://www.w3.org/2000/svg"
 width="766.000000pt" height="300.000000pt" viewBox="0 0 766.000000 300.000000"
 preserveAspectRatio="xMidYMid meet">

<g transform="translate(0.000000,300.000000) scale(0.100000,-0.100000)"
fill="#000000" stroke="none">
<path d="M1783 2816 c-29 -14 -33 -26 -26 -70 4 -26 11 -36 24 -36 31 0 183
-218 297 -425 151 -275 232 -561 232 -820 0 -353 -159 -708 -454 -1012 -48
-51 -53 -53 -103 -53 l-53 0 0 -50 0 -50 43 0 c24 0 49 -6 55 -12 10 -10 17
-10 32 0 16 9 320 12 1382 12 1450 0 1377 -3 1378 47 0 16 28 40 113 99 484
331 754 652 815 970 l16 84 458 0 458 0 0 50 0 50 -460 0 -460 0 0 38 c0 52
-32 175 -68 259 -81 191 -252 390 -507 590 -91 72 -360 252 -408 274 -15 7
-29 20 -32 31 -6 17 -52 18 -1340 18 -878 0 -1336 3 -1340 10 -8 12 -23 11
-52 -4z m2703 -133 c27 -14 107 -64 178 -110 473 -308 718 -601 766 -917 55
-363 -221 -753 -813 -1150 l-158 -106 -1256 0 -1256 0 24 29 c13 16 46 55 72
87 318 388 431 832 326 1284 -55 239 -180 515 -343 759 -53 79 -96 145 -96
147 0 2 564 4 1254 4 l1253 0 49 -27z"/>
<path d="M275 2199 c-14 -18 -40 -59 -57 -93 -31 -60 -118 -313 -118 -341 0
-18 37 -38 56 -31 8 3 14 19 14 39 0 19 6 39 13 44 6 6 53 13 103 17 l91 7 7
-40 c6 -41 25 -56 58 -45 15 4 19 13 16 40 -1 18 3 39 10 46 18 18 15 36 -8
48 -14 7 -20 21 -20 44 0 19 -7 68 -15 110 -32 168 -89 227 -150 155z m80
-147 c7 -37 16 -86 19 -109 l6 -43 -42 -1 c-24 0 -65 -4 -91 -8 l-48 -8 6 26
c11 45 77 191 98 217 17 23 21 24 29 10 5 -9 15 -47 23 -84z"/>
<path d="M690 1980 l0 -50 590 0 590 0 0 50 0 50 -590 0 -590 0 0 -50z"/>
<path d="M7004 1782 c-7 -4 -33 -42 -58 -84 -26 -43 -51 -80 -55 -83 -5 -2
-20 24 -35 59 -15 35 -38 74 -51 86 -26 25 -62 24 -79 -2 -8 -14 2 -35 56
-114 77 -113 79 -95 -21 -234 -69 -96 -77 -130 -33 -130 35 0 47 14 101 112
23 43 46 80 51 83 4 3 31 -26 60 -65 59 -79 100 -113 133 -108 30 4 38 48 8
48 -23 0 -90 79 -130 153 l-24 45 66 102 c53 83 64 107 56 122 -10 19 -26 23
-45 10z"/>
<path d="M270 1269 c-14 -6 -35 -19 -46 -30 -21 -20 -21 -20 -27 0 -6 24 -39
28 -56 8 -7 -9 -11 -78 -12 -192 -1 -110 -5 -186 -12 -196 -9 -14 -7 -22 4
-36 9 -10 19 -26 22 -35 6 -18 37 -24 50 -11 4 3 40 7 80 8 84 2 137 23 169
68 33 46 29 95 -8 125 l-30 24 23 46 c67 133 -31 271 -157 221z m88 -58 c33
-20 32 -135 -1 -168 -16 -17 -77 -32 -124 -33 -32 0 -33 1 -33 42 0 50 32 120
67 148 27 21 68 26 91 11z m28 -273 c37 -37 -34 -98 -115 -98 -65 0 -71 6 -71
67 l0 56 85 -5 c60 -3 91 -9 101 -20z"/>
<path d="M680 1040 l0 -50 595 0 595 0 0 50 0 50 -595 0 -595 0 0 -50z"/>
<path d="M652 240 c0 -14 2 -19 5 -12 2 6 2 18 0 25 -3 6 -5 1 -5 -13z"/>
<path d="M841 164 c0 -11 3 -14 6 -6 3 7 2 16 -1 19 -3 4 -6 -2 -5 -13z"/>
</g>
</svg>
