<?xml version="1.0" standalone="no"?>
<!DOCTYPE svg PUBLIC "-//W3C//DTD SVG 20010904//EN"
 "http://www.w3.org/TR/2001/REC-SVG-20010904/DTD/svg10.dtd">
<svg version="1.0" xmlns="http://www.w3.org/2000/svg"
 width="766.000000pt" height="300.000000pt" viewBox="0 0 766.000000 300.000000"
 preserveAspectRatio="xMidYMid meet">
<metadata>
Created by potrace 1.16, written by Peter Selinger 2001-2019
</metadata>
<g transform="translate(0.000000,300.000000) scale(0.100000,-0.100000)"
fill="#000000" stroke="none">
<path d="M2334 2865 c-4 -8 -12 -15 -20 -15 -12 0 -14 -61 -14 -375 l0 -375
-580 0 -580 0 0 -50 0 -50 580 0 580 0 0 -425 0 -425 -585 0 -585 0 0 -50 0
-50 585 0 585 0 0 -304 c0 -229 -3 -305 -12 -308 -9 -3 -8 -14 3 -44 13 -33
20 -39 48 -42 47 -5 78 5 83 25 4 13 378 180 1313 585 l1309 567 17 -28 c33
-55 76 -76 155 -76 62 0 75 3 108 29 21 16 46 45 55 65 l16 36 503 -3 502 -2
0 50 0 50 -505 -2 c-338 -2 -505 0 -505 7 0 24 -54 86 -90 105 -86 44 -200 10
-245 -73 -11 -21 -24 -36 -30 -33 -5 2 -607 279 -1337 615 -730 336 -1332 611
-1338 611 -6 0 -13 -7 -16 -15z m1340 -696 c682 -315 1244 -574 1248 -578 5
-5 -2261 -994 -2459 -1073 l-43 -18 0 1120 c0 616 3 1120 6 1120 4 0 565 -257
1248 -571z"/>
<path d="M725 2379 c-14 -18 -40 -59 -57 -93 -31 -60 -118 -313 -118 -341 0
-18 37 -38 56 -31 8 3 14 19 14 39 0 19 6 39 13 44 6 6 53 13 103 17 l91 7 7
-40 c6 -41 25 -56 58 -45 15 4 19 13 16 40 -1 18 3 39 10 46 18 18 15 36 -8
48 -14 7 -20 21 -20 44 0 19 -7 68 -15 110 -32 168 -89 227 -150 155z m80
-147 c7 -37 16 -86 19 -109 l6 -43 -42 -1 c-24 0 -65 -4 -91 -8 l-48 -8 6 26
c11 45 77 191 98 217 17 23 21 24 29 10 5 -9 15 -47 23 -84z"/>
<path d="M6744 1842 c-7 -4 -33 -42 -58 -84 -26 -43 -51 -80 -55 -83 -5 -2
-20 24 -35 59 -15 35 -38 74 -51 86 -26 25 -62 24 -79 -2 -8 -14 2 -35 56
-114 77 -113 79 -95 -21 -234 -69 -96 -77 -130 -33 -130 35 0 47 14 101 112
23 43 46 80 51 83 4 3 31 -26 60 -65 59 -79 100 -113 133 -108 30 4 38 48 8
48 -23 0 -90 79 -130 153 l-24 45 66 102 c53 83 64 107 56 122 -10 19 -26 23
-45 10z"/>
<path d="M720 1329 c-14 -6 -35 -19 -46 -30 -21 -20 -21 -20 -27 0 -6 24 -39
28 -56 8 -7 -9 -11 -78 -12 -192 -1 -110 -5 -186 -12 -196 -9 -14 -7 -22 4
-36 9 -10 19 -26 22 -35 6 -18 37 -24 50 -11 4 3 40 7 80 8 84 2 137 23 169
68 33 46 29 95 -8 125 l-30 24 23 46 c67 133 -31 271 -157 221z m88 -58 c33
-20 32 -135 -1 -168 -16 -17 -77 -32 -124 -33 -32 0 -33 1 -33 42 0 50 32 120
67 148 27 21 68 26 91 11z m28 -273 c37 -37 -34 -98 -115 -98 -65 0 -71 6 -71
67 l0 56 85 -5 c60 -3 91 -9 101 -20z"/>
</g>
</svg>
