<?xml version="1.0" standalone="no"?>
<!DOCTYPE svg PUBLIC "-//W3C//DTD SVG 20010904//EN"
 "http://www.w3.org/TR/2001/REC-SVG-20010904/DTD/svg10.dtd">
<svg version="1.0" xmlns="http://www.w3.org/2000/svg"
 width="390.000000pt" height="218.000000pt" viewBox="0 0 390.000000 218.000000"
 preserveAspectRatio="xMidYMid meet">

<g transform="translate(0.000000,218.000000) scale(0.100000,-0.100000)"
fill="#000000" stroke="none">
<path d="M982 1874 c-6 -11 5 -48 40 -125 26 -59 48 -113 48 -119 0 -7 -19
-10 -51 -8 l-50 3 -38 90 c-55 131 -73 165 -88 165 -29 0 -24 -35 21 -130 25
-55 46 -107 46 -115 0 -13 -22 -15 -132 -15 -137 0 -165 -6 -155 -34 5 -14 28
-16 157 -16 l150 0 11 -27 c45 -118 69 -361 50 -506 -12 -91 -53 -262 -66
-275 -3 -4 -73 -9 -153 -12 -122 -4 -147 -8 -147 -20 0 -12 23 -15 133 -18
100 -2 134 -6 138 -16 3 -7 -13 -54 -35 -104 -40 -87 -50 -135 -32 -146 14 -9
25 11 76 129 26 61 52 116 57 123 12 14 66 16 87 3 11 -7 5 -29 -33 -112 -32
-73 -44 -111 -39 -128 l6 -24 256 6 c141 3 284 11 318 16 155 27 346 101 478
184 151 94 322 252 442 404 l64 83 367 2 c359 3 367 3 367 23 0 20 -8 20 -354
25 l-355 5 -75 100 c-241 319 -564 533 -890 590 -59 11 -160 15 -347 15 -231
0 -264 -2 -272 -16z m503 -34 c233 -21 435 -100 642 -254 135 -100 373 -363
373 -413 0 -24 -107 -159 -201 -254 -246 -249 -521 -388 -828 -419 -124 -12
-418 -13 -425 -2 -3 5 12 49 34 99 39 91 87 240 111 348 21 90 18 379 -4 475
-29 129 -43 172 -91 293 -26 65 -44 122 -41 127 8 13 286 13 430 0z m-382
-305 c57 -188 69 -423 31 -594 -36 -162 -52 -191 -106 -191 -40 0 -48 16 -33
69 65 220 67 506 4 698 -14 45 -5 55 49 51 41 -3 47 -6 55 -33z"/>
<path d="M339 1763 c-66 -168 -89 -237 -80 -246 13 -13 28 -2 36 30 10 43 24
53 69 53 49 0 61 -7 69 -40 10 -38 22 -51 40 -45 14 6 13 14 -10 73 -13 37
-35 96 -47 132 -18 50 -28 66 -44 68 -16 3 -25 -4 -33 -25z m53 -83 l16 -50
-39 0 c-41 0 -45 5 -30 42 5 13 12 31 15 41 9 29 22 19 38 -33z"/>
<path d="M3372 1313 c2 -5 21 -34 42 -66 l39 -58 -40 -57 c-57 -82 -57 -82
-34 -82 13 0 34 20 60 56 l40 55 35 -55 c25 -39 42 -56 57 -56 l21 0 -23 38
c-12 20 -33 51 -45 68 l-23 32 39 61 c22 34 40 64 40 66 0 3 -9 5 -19 5 -12 0
-29 -17 -45 -45 -15 -25 -31 -45 -37 -45 -5 0 -22 20 -37 45 -19 32 -34 44
-50 45 -13 0 -22 -3 -20 -7z"/>
<path d="M270 720 l0 -140 60 0 c125 0 185 62 130 133 -13 16 -16 28 -10 32
12 7 13 65 2 81 -15 23 -53 34 -116 34 l-66 0 0 -140z m127 104 c12 -3 25 -16
29 -27 10 -32 -29 -59 -80 -55 -37 3 -41 6 -44 31 -2 16 -1 35 2 43 6 14 53
19 93 8z m28 -128 c16 -12 18 -19 10 -42 -12 -32 -52 -47 -102 -38 -31 6 -33
8 -33 50 l0 44 53 0 c30 0 62 -6 72 -14z"/>
</g>
</svg>
