<?xml version="1.0" standalone="no"?>
<!DOCTYPE svg PUBLIC "-//W3C//DTD SVG 20010904//EN"
 "http://www.w3.org/TR/2001/REC-SVG-20010904/DTD/svg10.dtd">
<svg version="1.0" xmlns="http://www.w3.org/2000/svg"
 width="512.000000pt" height="512.000000pt" viewBox="0 0 512.000000 512.000000"
 preserveAspectRatio="xMidYMid meet">

<g transform="translate(0.000000,512.000000) scale(0.100000,-0.100000)"
fill="#000000" stroke="none">
<path d="M1171 3535 c-141 -31 -252 -78 -367 -155 -87 -59 -193 -161 -242
-232 l-33 -48 -228 0 c-214 0 -230 -1 -254 -20 -38 -30 -52 -80 -33 -123 24
-59 52 -67 241 -67 91 0 165 -2 165 -5 0 -3 -10 -40 -22 -82 -20 -67 -23 -101
-23 -248 0 -134 4 -184 19 -235 53 -191 144 -350 270 -474 124 -122 256 -199
433 -252 108 -32 310 -44 430 -24 408 66 740 389 819 798 18 95 18 279 0 374
-77 400 -394 717 -794 794 -92 18 -297 17 -381 -1z m311 -206 c173 -27 310
-98 438 -228 124 -126 183 -238 216 -409 34 -176 -3 -379 -97 -539 -48 -81
-190 -222 -274 -271 -420 -247 -961 -56 -1132 399 -106 282 -43 590 165 811
177 187 433 276 684 237z"/>
<path d="M1068 3061 c-85 -75 -94 -284 -14 -336 78 -51 206 -1 206 80 0 25
-36 17 -51 -12 -30 -56 -107 -62 -143 -11 -21 29 -21 136 -1 186 18 42 53 82
71 82 36 0 58 -95 33 -142 -9 -16 -8 -22 2 -29 33 -20 62 64 47 135 -17 80
-88 102 -150 47z"/>
<path d="M1415 3079 c-83 -48 -124 -147 -104 -254 22 -123 170 -163 248 -68
70 85 57 256 -24 309 -32 21 -95 28 -120 13z m101 -63 c24 -20 28 -32 32 -90
8 -117 -32 -180 -110 -178 -66 2 -99 78 -77 180 20 99 94 141 155 88z"/>
<path d="M1745 3076 c-61 -28 -97 -97 -98 -191 -1 -120 40 -180 123 -180 58 0
97 24 123 78 16 32 17 40 5 64 -13 26 -17 28 -73 26 -62 -2 -90 -18 -79 -46 7
-20 16 -21 67 -6 22 6 41 8 44 6 11 -11 -29 -67 -52 -73 -74 -18 -111 32 -102
138 9 104 52 161 107 143 16 -5 20 -15 20 -56 0 -41 3 -49 19 -49 22 0 31 19
31 65 0 68 -71 110 -135 81z"/>
<path d="M901 3066 c-10 -12 -12 -56 -10 -172 4 -141 6 -157 24 -170 26 -19
41 -12 35 17 -6 32 -6 146 0 249 5 80 4 85 -16 88 -11 2 -26 -4 -33 -12z"/>
<path d="M1113 2372 c-22 -14 -33 -64 -40 -183 -4 -73 -10 -116 -15 -111 -15
15 -67 173 -74 224 -7 54 -24 73 -57 64 -22 -5 -24 -12 -35 -138 -14 -170 0
-246 41 -216 14 11 14 19 5 53 -7 28 -8 62 -1 110 l9 70 13 -45 c20 -69 70
-169 91 -180 49 -26 70 22 70 164 1 60 7 117 15 140 18 50 9 68 -22 48z"/>
<path d="M1655 2369 c-83 -48 -124 -147 -104 -254 22 -123 170 -163 248 -68
70 85 57 256 -24 309 -32 21 -95 28 -120 13z m101 -63 c24 -20 28 -32 32 -90
8 -117 -32 -180 -110 -178 -66 2 -99 78 -77 180 20 99 94 141 155 88z"/>
<path d="M1201 2356 c-10 -12 -12 -56 -10 -172 4 -141 6 -157 24 -170 26 -19
41 -12 35 17 -6 32 -6 146 0 249 5 80 4 85 -16 88 -11 2 -26 -4 -33 -12z"/>
<path d="M1337 2360 c-45 -8 -51 -14 -43 -36 5 -13 15 -15 47 -11 l40 5 -7
-142 c-7 -139 -6 -144 15 -165 26 -26 48 -23 42 5 -7 32 -5 206 3 257 l7 48
45 -2 c54 -4 79 15 50 37 -21 15 -130 18 -199 4z"/>
<path d="M3520 3536 c-233 -50 -444 -180 -589 -364 l-64 -82 -41 38 c-23 21
-57 47 -76 59 -156 95 -435 54 -465 -68 -9 -38 18 -95 54 -113 39 -21 55 -20
126 5 70 25 119 20 182 -16 79 -47 110 -134 87 -252 -18 -90 -17 -283 0 -375
77 -400 394 -717 794 -794 98 -19 284 -18 379 2 290 60 533 235 679 491 76
133 86 198 37 247 -34 34 -74 41 -118 21 -28 -14 -42 -31 -66 -84 -100 -210
-256 -358 -459 -432 -468 -170 -975 141 -1042 640 -32 241 59 492 240 663 358
337 923 271 1193 -140 53 -80 81 -148 109 -262 29 -115 90 -156 169 -116 54
28 63 87 31 204 -11 39 -20 74 -20 77 0 3 86 5 190 5 243 0 270 11 270 110 0
33 -6 48 -29 71 l-29 29 -254 0 -253 1 -65 81 c-124 156 -304 274 -505 334
-77 23 -112 27 -245 30 -105 2 -176 -1 -220 -10z"/>
<path d="M3594 2705 c-45 -35 -76 -114 -76 -195 -1 -124 61 -186 167 -166 39
8 95 58 95 86 0 36 -21 32 -60 -10 -36 -39 -42 -42 -77 -37 -56 9 -67 27 -71
112 -3 61 0 82 18 120 12 25 34 53 47 63 25 15 26 15 45 -8 19 -23 21 -57 7
-135 -7 -34 27 -30 41 5 26 64 6 168 -35 184 -33 12 -71 5 -101 -19z"/>
<path d="M3903 2720 c-33 -14 -63 -68 -63 -117 0 -51 28 -87 112 -144 75 -52
76 -74 1 -74 -34 1 -58 7 -71 18 -23 21 -48 22 -55 3 -13 -34 77 -71 155 -64
101 10 115 73 30 131 -118 80 -147 133 -97 182 47 48 85 22 85 -60 0 -35 5
-55 13 -58 21 -8 38 7 39 34 4 68 -3 92 -36 125 -35 35 -68 42 -113 24z"/>
<path d="M4205 2714 c-44 -8 -83 -18 -87 -22 -5 -5 -9 -69 -11 -143 -3 -203
17 -227 163 -194 45 10 83 22 85 26 10 15 -26 31 -57 26 -18 -3 -53 -9 -77
-13 -50 -8 -71 8 -71 58 0 35 24 48 90 48 48 0 51 2 48 23 -3 20 -7 22 -65 19
l-63 -3 0 55 c0 67 10 75 111 83 68 6 90 16 73 33 -18 17 -61 18 -139 4z"/>
<path d="M3126 2707 c-16 -12 -18 -29 -14 -169 3 -163 10 -188 50 -188 16 0
19 4 14 23 -15 48 -17 107 -8 217 8 86 8 117 -1 122 -16 10 -21 10 -41 -5z"/>
<path d="M3288 2700 c-44 -34 -71 -106 -71 -186 1 -109 46 -174 123 -174 74 0
153 86 131 143 -13 32 -36 39 -95 28 -55 -10 -69 -21 -60 -45 6 -14 15 -16 60
-10 61 7 67 0 31 -42 -30 -35 -79 -37 -110 -5 -19 19 -22 32 -22 99 1 84 18
130 59 157 42 27 84 -12 65 -62 -5 -15 -3 -25 7 -33 45 -38 64 81 19 125 -31
32 -100 35 -137 5z"/>
</g>
</svg>
