<?xml version="1.0" standalone="no"?>
<!DOCTYPE svg PUBLIC "-//W3C//DTD SVG 20010904//EN"
 "http://www.w3.org/TR/2001/REC-SVG-20010904/DTD/svg10.dtd">
<svg version="1.0" xmlns="http://www.w3.org/2000/svg"
 width="710.000000pt" height="300.000000pt" viewBox="0 0 710.000000 300.000000"
 preserveAspectRatio="xMidYMid meet">
<metadata>
Created by potrace 1.16, written by Peter Selinger 2001-2019
</metadata>
<g transform="translate(0.000000,300.000000) scale(0.100000,-0.100000)"
fill="#000000" stroke="none">
<path d="M1849 2783 c-1 -10 0 -192 1 -405 l2 -388 -541 0 -541 0 0 -50 0 -50
540 0 540 0 0 -420 0 -420 -545 0 -545 0 0 -50 0 -50 545 0 545 0 0 -295 0
-295 -35 0 -35 0 0 -50 0 -50 1388 -1 c763 -1 1410 -1 1437 1 28 1 53 7 58 14
4 6 6 30 5 54 -2 37 5 51 58 125 193 262 308 492 369 738 l27 107 44 -45 c25
-24 74 -58 110 -75 55 -26 78 -31 142 -31 108 0 180 29 253 102 54 55 99 141
99 191 0 20 9 20 350 20 l350 0 0 50 0 50 -349 0 -348 0 -22 59 c-29 81 -95
152 -179 193 -59 29 -76 33 -147 33 -68 0 -89 -5 -146 -31 -36 -17 -84 -49
-107 -71 -39 -37 -43 -39 -46 -19 -42 216 -70 303 -151 472 -61 127 -162 281
-264 404 -39 47 -83 104 -98 127 l-28 42 -1317 1 c-1165 0 -1318 2 -1318 15 0
11 -12 15 -50 15 -41 0 -50 -3 -51 -17z m2756 -205 c215 -259 343 -501 407
-772 18 -75 22 -122 22 -271 0 -159 -3 -193 -26 -290 -34 -143 -78 -263 -145
-394 -60 -117 -193 -321 -276 -421 l-53 -65 -1291 -3 -1292 -2 0 1155 0 1155
1288 0 1289 0 77 -92z m926 -876 c99 -51 145 -154 119 -264 -10 -41 -24 -63
-65 -104 -43 -43 -61 -54 -109 -65 -177 -39 -325 121 -276 300 14 53 92 135
141 150 67 19 133 13 190 -17z"/>
<path d="M355 2159 c-14 -18 -40 -59 -57 -93 -31 -60 -118 -313 -118 -341 0
-18 37 -38 56 -31 8 3 14 19 14 39 0 19 6 39 13 44 6 6 53 13 103 17 l91 7 7
-40 c6 -41 25 -56 58 -45 15 4 19 13 16 40 -1 18 3 39 10 46 18 18 15 36 -8
48 -14 7 -20 21 -20 44 0 19 -7 68 -15 110 -32 168 -89 227 -150 155z m80
-147 c7 -37 16 -86 19 -109 l6 -43 -42 -1 c-24 0 -65 -4 -91 -8 l-48 -8 6 26
c11 45 77 191 98 217 17 23 21 24 29 10 5 -9 15 -47 23 -84z"/>
<path d="M6904 1742 c-7 -4 -33 -42 -58 -84 -26 -43 -51 -80 -55 -83 -5 -2
-20 24 -35 59 -15 35 -38 74 -51 86 -26 25 -62 24 -79 -2 -8 -14 2 -35 56
-114 77 -113 79 -95 -21 -234 -69 -96 -77 -130 -33 -130 35 0 47 14 101 112
23 43 46 80 51 83 4 3 31 -26 60 -65 59 -79 100 -113 133 -108 30 4 38 48 8
48 -23 0 -90 79 -130 153 l-24 45 66 102 c53 83 64 107 56 122 -10 19 -26 23
-45 10z"/>
<path d="M350 1229 c-14 -6 -35 -19 -46 -30 -21 -20 -21 -20 -27 0 -6 24 -39
28 -56 8 -7 -9 -11 -78 -12 -192 -1 -110 -5 -186 -12 -196 -9 -14 -7 -22 4
-36 9 -10 19 -26 22 -35 6 -18 37 -24 50 -11 4 3 40 7 80 8 84 2 137 23 169
68 33 46 29 95 -8 125 l-30 24 23 46 c67 133 -31 271 -157 221z m88 -58 c33
-20 32 -135 -1 -168 -16 -17 -77 -32 -124 -33 -32 0 -33 1 -33 42 0 50 32 120
67 148 27 21 68 26 91 11z m28 -273 c37 -37 -34 -98 -115 -98 -65 0 -71 6 -71
67 l0 56 85 -5 c60 -3 91 -9 101 -20z"/>
</g>
</svg>
