<?xml version="1.0" standalone="no"?>
<!DOCTYPE svg PUBLIC "-//W3C//DTD SVG 20010904//EN"
 "http://www.w3.org/TR/2001/REC-SVG-20010904/DTD/svg10.dtd">
<svg version="1.0" xmlns="http://www.w3.org/2000/svg"
 width="390.000000pt" height="218.000000pt" viewBox="0 0 390.000000 218.000000"
 preserveAspectRatio="xMidYMid meet">

<g transform="translate(0.000000,218.000000) scale(0.100000,-0.100000)"
fill="#000000" stroke="none">
<path d="M1000 1870 c-8 -15 -5 -30 14 -67 55 -110 78 -176 64 -184 -7 -5
-109 -9 -225 -9 -206 0 -213 -1 -213 -20 0 -19 7 -20 223 -20 163 0 227 -3
239 -12 30 -24 78 -260 78 -383 0 -60 -25 -237 -40 -290 -5 -16 -14 -49 -20
-72 l-11 -43 -219 0 c-120 0 -225 -3 -234 -6 -9 -3 -16 -15 -16 -25 0 -18 11
-19 221 -19 l222 0 -6 -29 c-3 -16 -24 -69 -46 -118 -63 -140 -73 -133 195
-133 380 0 586 49 813 192 156 98 354 276 451 407 25 33 50 60 56 61 6 0 16
-11 22 -25 14 -30 82 -64 129 -65 63 0 127 41 159 102 l14 28 213 2 c204 3
212 4 212 23 0 19 -8 20 -209 25 l-208 5 -20 53 c-18 47 -25 56 -65 73 -88 38
-187 18 -229 -46 -9 -14 -20 -25 -24 -25 -4 0 -42 42 -84 94 -190 234 -421
400 -676 486 -137 46 -255 60 -521 60 -237 0 -249 -1 -259 -20z m617 -49 c246
-48 460 -162 662 -355 67 -64 201 -224 226 -269 l18 -34 -58 -77 c-149 -198
-377 -388 -576 -480 -198 -91 -345 -118 -634 -114 -126 2 -199 7 -198 13 1 6
23 61 48 124 57 139 99 300 115 446 11 95 11 127 -4 232 -19 139 -56 278 -110
408 -21 50 -40 98 -43 108 -5 16 10 17 225 17 187 0 250 -4 329 -19z m1154
-546 c93 -49 48 -200 -62 -212 -40 -5 -50 -2 -78 23 -37 33 -56 98 -42 137 23
61 114 87 182 52z"/>
<path d="M371 1768 c-48 -123 -91 -239 -91 -243 0 -3 8 -5 18 -5 13 0 23 13
32 40 l13 40 54 0 c53 0 53 0 69 -40 11 -26 22 -40 34 -40 21 0 22 -4 -36 163
-34 94 -41 107 -61 107 -15 0 -27 -8 -32 -22z m52 -82 c8 -25 13 -47 9 -50 -3
-3 -20 -6 -39 -6 -31 0 -33 2 -27 28 21 84 35 92 57 28z"/>
<path d="M3327 1324 c-3 -4 12 -31 33 -62 22 -30 40 -61 40 -67 0 -6 -18 -37
-40 -68 -22 -30 -40 -60 -40 -66 0 -27 32 -6 68 45 l40 56 38 -56 c22 -30 47
-55 57 -56 24 0 22 7 -23 75 -22 33 -40 65 -40 70 0 6 16 34 35 62 38 57 43
73 20 73 -8 0 -29 -22 -46 -50 -17 -27 -34 -50 -37 -50 -4 0 -22 23 -40 50
-30 46 -49 59 -65 44z"/>
<path d="M300 725 l0 -135 80 0 c73 0 83 3 105 25 30 30 32 71 5 100 -20 21
-20 23 -3 53 17 30 17 32 -3 59 -20 26 -26 28 -103 31 l-81 3 0 -136z m154 83
c19 -31 -4 -53 -63 -56 l-51 -3 0 41 0 41 51 -3 c36 -2 55 -8 63 -20z m-14
-101 c14 -7 26 -23 28 -35 6 -38 -15 -52 -74 -52 l-54 0 0 50 0 50 38 0 c20 0
48 -6 62 -13z"/>
</g>
</svg>
